<svg xmlns="http://www.w3.org/2000/svg" viewBox="0 0 489 128" fill="none">
<path fill="#ff5f1a" d="M 25.5 6 L 28 10.5 L 26 15.5 L 26 18.5 Q 27.8 19.2 27 22.5 Q 25 23.5 26 27.5 L 27 28.5 L 27 39 Q 30.8 40 32 37.5 Q 42.7 21.7 55.5 8 L 71.5 8 L 75.5 6 L 77 10.5 L 71 16.5 L 68 21.5 L 60 30.5 L 60 32 Q 57.3 30.9 58 33.5 L 52 40.5 L 52 42 Q 49.3 40.9 50 43.5 L 47 46.5 L 47 48.5 L 59 62.5 L 61 66.5 L 65 70.5 L 78 88.5 L 76.5 90 L 55.5 90 L 30.5 57 L 27 57.5 L 28 60.5 L 27 61.5 L 27 74.5 L 26 76.5 L 27 77.5 L 27 88.5 L 25.5 90 L 8.5 90 L 7 87.5 L 8 86.5 L 8 11.5 Q 6.3 10.6 7 8 L 13.5 7 L 16.5 8 L 21.5 7 Q 22.5 9 23.5 7 L 25.5 6 Z "/>
<path fill="#ff5f1a" d="M 115.5 7 L 132.5 7 L 133.5 8 L 139.5 9 L 150.5 15 L 157 21.5 L 160 25.5 L 165 37.5 L 165 45.5 Q 167.3 46.8 166 51.5 L 165 52.5 L 165 60.5 L 163 63.5 L 161 70.5 Q 157.2 78.2 150.5 83 L 139.5 89 L 133.5 90 L 132.5 91 L 115.5 91 Q 114.5 89 110.5 90 L 101.5 86 L 89 74.5 L 85 67.5 L 84 61.5 L 82 57.5 L 82 40.5 L 87 26.5 L 98.5 14 L 105.5 10 L 111.5 8 L 114.5 8 L 115.5 7 Z M 123 24 L 122 25 L 115 26 L 109 31 L 107 31 L 107 33 L 103 38 L 101 44 L 101 55 L 105 65 L 110 69 L 119 73 L 130 73 L 140 68 L 145 60 L 146 57 L 146 51 L 147 50 Q 145 47 146 42 L 142 34 Q 139 28 133 26 L 129 26 L 123 24 Z "/>
<path fill="#ff5f1a" d="M 259.5 7 L 261.5 8 L 295.5 8 L 303.5 11 L 311 18.5 L 314 24.5 Q 313 28.5 315 29.5 L 315 36.5 L 314 37.5 L 313 43.5 L 308.5 49 L 299 54.5 L 319 84.5 L 322 87.5 L 322 90 L 300.5 90 L 299 88.5 L 297 85.5 L 297 83.5 L 291 75.5 L 288 68.5 L 282 60.5 L 281 56.5 L 279.5 55 L 277 55 L 277 59.5 Q 279 60.5 278 64.5 L 277 65.5 L 277 90 L 258.5 90 L 257 88.5 Q 255.8 83.8 258 82.5 L 258 69.5 L 257 68.5 L 257 18.5 Q 258.8 17.8 258 14.5 L 256 10.5 L 258 10 L 259.5 7 Z M 279 24 L 279 26 L 277 30 L 277 41 L 288 41 L 291 40 Q 292 36 294 39 L 296 36 Q 297 30 295 28 L 292 25 Q 288 26 288 24 L 279 24 Z "/>
<path fill="#ff5f1a" d="M 332 7 Q 334.6 6.3 335.5 8 L 369.5 8 L 378.5 12 L 385 18.5 L 389 30.5 L 389 35.5 L 385 45.5 L 379.5 51 L 373 54.5 Q 375.8 55.6 375 59 Q 377.7 57.9 377 60.5 Q 384.7 74.8 395 86.5 L 395 90 L 373.5 90 L 373 88.5 L 367 77.5 L 363 72.5 L 361 67.5 L 355.5 60 L 354 59.5 Q 356 58.5 354 57.5 L 352.5 55 L 351 55.5 L 351 63.5 L 350 66.5 Q 352.3 67.8 351 72.5 L 350 73.5 L 350 84.5 Q 351.7 85.3 351 88.5 L 349.5 90 L 332.5 90 L 330 88.5 L 331 87.5 L 331 10.5 L 330.5 9 Q 333.1 9.7 332 7 Z M 351 24 L 351 26 Q 352 29 350 30 L 350 36 L 351 37 L 350 41 L 361 41 Q 361 39 365 40 L 370 36 Q 371 31 369 31 Q 370 28 367 29 L 367 28 L 363 24 L 351 24 Z "/>
<path fill="#ff5f1a" d="M 433.5 7 L 450.5 7 Q 451.2 8.7 454.5 8 L 465.5 13 L 471.5 19 L 473 19 L 473 20.5 L 477 24.5 L 482 36.5 Q 481.3 39.8 483 40.5 L 483 57.5 L 482 58.5 L 481 65.5 L 478 71.5 L 470.5 81 L 463.5 86 L 454.5 90 Q 450.5 89 449.5 91 L 433.5 91 Q 432.5 89 428.5 90 L 417.5 85 L 408 76.5 L 401 63.5 L 399 53.5 L 400 52.5 L 400 39.5 L 401 38.5 L 402 32.5 L 406 24.5 L 411.5 18 L 417.5 13 L 425.5 9 L 432.5 8 L 433.5 7 Z M 442 24 Q 441 26 438 25 Q 437 27 436 25 L 428 29 L 421 37 L 420 43 L 419 44 L 419 56 L 423 65 L 429 70 L 436 73 L 448 73 L 455 70 L 462 62 L 463 56 L 465 52 L 464 50 L 465 47 L 464 46 L 463 40 L 459 33 L 455 28 L 446 25 L 443 25 L 442 24 Z "/>
<path fill="#ff5f1a" d="M 177.5 8 L 195.5 8 L 196 8.5 L 196 63.5 L 198 68.5 L 201.5 72 L 206.5 74 L 212.5 74 Q 218 72 221 67.5 L 222 64.5 L 222 10.5 Q 219.8 9.3 222.5 8 L 240.5 8 L 242 9.5 L 241 10.5 L 241 69.5 L 237 78.5 L 232.5 84 L 221.5 90 Q 218.3 89.3 217.5 91 L 201.5 91 L 200.5 90 L 196.5 90 L 193.5 88 L 191.5 88 L 186.5 84 L 185 84 L 185 82 Q 182.3 83.1 183 80.5 L 181 78.5 L 177 69.5 L 177 12.5 L 176 9.5 L 177.5 8 Z "/>
<path fill="#ff5f1a" d="M 57 103 L 59.5 103 L 64 107.5 L 64 110.5 L 67 114.5 L 67 117.5 L 63.5 122 L 55 122 L 55 105 Q 58 106 57 103 Z M 60 115 L 59 118 L 61 117 L 62 118 L 63 117 L 60 115 Z "/>
<path fill="#ff5f1a" d="M 155.5 103 L 159 106.5 L 159 109 L 156.5 110 L 155 109.5 L 155 121.5 Q 155.3 122.3 152.5 122 L 151 120.5 L 151 110.5 L 149.5 109 L 147 107.5 Q 146.5 104.5 148.5 104 L 154.5 104 L 155.5 103 Z "/>
<path fill="#ff5f1a" d="M 268.5 103 L 273.5 103 L 274 105 L 275.5 105 Q 280.8 107.3 281 114.5 L 277.5 121 Q 274.3 123.3 267.5 122 L 266 120.5 L 266 109.5 L 265 108.5 L 268.5 103 Z M 271 110 L 271 117 L 273 118 L 275 117 L 276 117 L 276 112 Q 275 109 271 110 Z "/>
<path fill="#ff5f1a" d="M 359.5 103 L 364.5 114 L 367 109.5 L 367 106.5 L 368.5 105 Q 371.5 104.5 372 106.5 Q 370.8 113.3 367 117.5 L 367 120.5 L 365.5 122 Q 362.5 122.5 362 120.5 L 359 111.5 L 357.5 110 Q 354.9 110.8 356 107.5 Q 353.8 106.3 356.5 105 L 358 105.5 L 359.5 103 Z "/>
<path fill="#ff5f1a" d="M 386 103 L 393.5 103 L 394 104.5 Q 395.8 105.3 395 108.5 L 393 111.5 Q 395.5 112 395 115.5 Q 391 117.5 395 119.5 L 395 122 L 390.5 122 L 388.5 123 L 384 120.5 L 383 106 L 386 104.5 L 386 103 Z "/>
<path fill="#ff5f1a" d="M 82.5 104 L 84 105.5 L 84 111.5 Q 86 112.5 85 116.5 L 86.5 118 Q 89.8 119.1 89 116.5 Q 90.8 115.8 90 112.5 Q 88 111.5 89 107.5 L 92.5 105 L 94 106.5 L 94 117.5 L 90.5 122 Q 83.3 123.3 81 119.5 L 80 113.5 L 79 112.5 L 79 105.5 L 80.5 106 L 82.5 104 Z "/>
<path fill="#ff5f1a" d="M 109 104 Q 111.9 103.5 113 106.5 L 113 120.5 L 111.5 122 Q 108.2 123.1 109 120.5 L 108 119.5 L 108 108.5 L 107 106 Q 110 107 109 104 Z "/>
<path fill="#ff5f1a" d="M 128.5 104 Q 130.8 103.3 130 105.5 L 131 106.5 L 131 118 Q 134.8 117 136 119.5 Q 136.3 122.3 135.5 122 L 128.5 122 L 127 120.5 L 127 110.5 Q 125.3 109.7 126 106.5 L 128.5 104 Z "/>
<path fill="#ff5f1a" d="M 192.5 104 Q 199.3 103.1 202 105 L 202 109 L 200.5 109 L 199 110.5 L 199 120.5 L 197.5 122 Q 194.8 122.3 195 121.5 L 195 110.5 L 190 107.5 Q 188.9 104.2 191.5 105 L 192.5 104 Z "/>
<path fill="#ff5f1a" d="M 223.5 104 Q 228.3 105.7 231 109.5 Q 232.7 111.3 232 115.5 L 228.5 121 Q 225.7 123.2 219.5 122 L 215 116.5 L 215 110.5 L 216 108 L 217.5 108 L 220.5 105 L 223.5 104 Z M 222 110 Q 218 110 219 115 L 223 118 L 226 118 L 228 115 L 228 113 Q 227 109 222 110 Z "/>
<path fill="#ff5f1a" d="M 297.5 104 Q 303.8 102.8 305 106.5 Q 305.5 109.5 303.5 110 L 301 110.5 L 304 112 L 305 114.5 L 301 117.5 L 305 119.5 L 305 122 L 300.5 122 L 297.5 123 L 295 122 L 294 106.5 L 297.5 104 Z "/>
<path fill="#ff5f1a" d="M 320.5 104 L 323 106.5 L 323 118 Q 326 117.3 327 119.5 L 327 122 L 319 122 L 318 119.5 L 318 109.5 L 317 106.5 L 320.5 104 Z "/>
<path fill="#ff5f1a" d="M 342.5 104 L 345 108.5 L 344 109.5 L 344 122 L 340 122 L 340 115.5 L 339 114.5 L 339 105 Q 341.6 105.8 342.5 104 Z "/>
<path fill="#ff5f1a" d="M 410.5 104 Q 416.3 103.2 418 106.5 L 419 108.5 L 419 115 L 416 115.5 L 419 120.5 Q 418.5 122.5 415.5 122 L 413.5 121 L 410.5 123 L 408 120.5 L 408 106.5 L 410.5 104 Z "/>
</svg>
